<svg width="1080" height="620" viewBox="0 0 1080 620" fill="none" xmlns="http://www.w3.org/2000/svg">
<mask id="mask0" mask-type="alpha" maskUnits="userSpaceOnUse" x="0" y="0" width="1080" height="620">
<rect width="1080" height="620" fill="#D89700"/>
</mask>
<g mask="url(#mask0)">
<rect width="1080" height="620" fill="#1072EB"/>
<path opacity="0.5" d="M139.517 206.834C94.5643 145.027 228.485 -78.8013 301.064 -182.99H-109.828L-74.7092 691.474L301.064 789.807C354.913 735.958 464.016 598.759 469.635 480.76C476.659 333.26 195.707 284.093 139.517 206.834Z" fill="#1040C1"/>
<path opacity="0.5" d="M185.489 389.824C140.537 328.017 274.458 104.188 347.037 0H-63.8555L-28.7365 874.463L347.037 972.797C400.886 918.947 509.989 781.749 515.608 663.749C522.632 516.25 241.68 467.083 185.489 389.824Z" fill="#1040C1"/>
<path opacity="0.5" d="M796.412 313.214C636.141 86.8664 731.657 -97.1728 799.45 -160.899L1278.9 101.039L1356.71 550.33C1236.73 565.602 956.683 539.561 796.412 313.214Z" fill="#1040C1"/>
<path opacity="0.5" d="M819.804 237.731C841.617 -44.6907 1087.62 -90.4201 1207.89 -77.982L1479.79 488.246L1193.58 853.142C1059.9 765.681 797.991 520.154 819.804 237.731Z" fill="#1040C1"/>
</g>
</svg>
